# File created by Blade
# Date/Time:  Thu Sep 25 17:33:50 2014
# Frame Rate: 120.000 fps
#------------------------------------------------------
:FULLY-SPECIFIED
:DEGREES
2063
root -7.922504 35.126686 -1.215099 34.151759 12.916986 47.862570
Spine -0.407333 -7.676040 -10.911696
Head -18.033057 40.068362 -24.336229
LeftShoulder 2.468818 9.685402 7.180372
LeftArm 61.560402 32.792669 -43.619504
LeftForeArm 32.332829 -0.000000 108.173307
LeftHand -26.420313 -0.000000 29.329646
LeftHandThumb1 -26.253704 0.000000 33.147579
RightShoulder -16.329590 12.411526 -28.305270
RightArm 8.244789 -35.683747 80.299022
RightForeArm -22.072138 -0.000000 119.973143
RightHand 1.146691 0.000000 -22.823267
RightHandThumb1 -24.326973 -0.000000 -32.862282
LeftUpLeg -47.550725 28.751282 33.129191
LeftLeg 70.004981 -0.000000 -0.000000
LeftFoot 29.915509 21.053520 -13.057918
LeftToeBase 0.788876 -0.000000 -0.000000
RightUpLeg -27.374561 -24.973467 -36.253259
RightLeg 25.851337 -0.000000 -0.000000
RightFoot -13.911513 -5.698678 3.856433
RightToeBase 3.694607 -0.000000 -0.000000
2064
root -7.907546 35.109890 -1.211085 33.757017 12.996668 47.449804
Spine -0.451297 -7.687311 -10.352997
Head -17.953807 39.950230 -24.189358
LeftShoulder 2.482775 9.617404 7.187265
LeftArm 61.444553 32.954998 -43.857845
LeftForeArm 32.208982 -0.000000 108.404262
LeftHand -26.511276 -0.000000 29.057477
LeftHandThumb1 -26.253704 0.000000 33.147579
RightShoulder -16.438509 12.400378 -28.393882
RightArm 8.230107 -35.543947 80.121713
RightForeArm -22.157057 -0.000000 120.125351
RightHand 0.996539 -0.000000 -22.543458
RightHandThumb1 -24.326973 -0.000000 -32.862282
LeftUpLeg -48.067496 28.835141 32.604091
LeftLeg 71.759000 -0.000000 -0.000000
LeftFoot 29.807650 21.001998 -12.961628
LeftToeBase 0.829456 -0.000000 -0.000000
RightUpLeg -27.156173 -24.468306 -36.122809
RightLeg 25.977818 -0.000000 -0.000000
RightFoot -13.846239 -5.284283 3.699743
RightToeBase 3.564537 -0.000000 -0.000000
2065
root -7.892775 35.094318 -1.210264 33.392859 13.037013 46.999993
Spine -0.556564 -7.714834 -9.755977
Head -17.878143 39.896923 -24.067323
LeftShoulder 2.441322 9.658855 7.173232
LeftArm 61.477040 33.067836 -43.957647
LeftForeArm 31.988279 -0.000000 108.613710
LeftHand -26.877033 -0.000000 29.433686
LeftHandThumb1 -26.253704 0.000000 33.147579
RightShoulder -16.531875 12.343762 -28.481921
RightArm 8.263283 -35.301907 79.948964
RightForeArm -22.056815 -0.000000 120.195242
RightHand 1.400453 -0.000000 -21.990341
RightHandThumb1 -24.326973 -0.000000 -32.862282
LeftUpLeg -48.605471 28.938554 32.051946
LeftLeg 73.479277 -0.000000 -0.000000
LeftFoot 29.571094 21.078688 -13.093628
LeftToeBase 1.165282 -0.000000 -0.000000
RightUpLeg -27.009083 -23.840043 -36.008097
RightLeg 26.140478 -0.000000 -0.000000
RightFoot -13.735596 -4.795492 3.492115
RightToeBase 3.375530 -0.000000 -0.000000
2066
root -7.880118 35.079556 -1.218195 33.065576 13.025556 46.518206
Spine -0.689123 -7.740815 -9.161798
Head -17.807362 39.894650 -23.830903
LeftShoulder 2.409911 9.749364 7.246743
LeftArm 61.455910 33.089108 -44.173899
LeftForeArm 31.826847 -0.000000 108.790485
LeftHand -26.377178 -0.000000 28.639207
LeftHandThumb1 -26.253704 0.000000 33.147579
RightShoulder -16.588888 12.231661 -28.473904
RightArm 8.467262 -35.044498 79.628311
RightForeArm -21.931569 -0.000000 120.315315
RightHand 1.553109 -0.000000 -21.507763
RightHandThumb1 -24.326973 -0.000000 -32.862282
LeftUpLeg -49.152144 29.043744 31.476022
LeftLeg 75.144281 -0.000000 -0.000000
LeftFoot 29.459580 21.127432 -13.229764
LeftToeBase 0.820112 -0.000000 -0.000000
RightUpLeg -26.951829 -22.873979 -36.009778
RightLeg 26.424137 -0.000000 -0.000000
RightFoot -13.555651 -4.301576 3.207222
RightToeBase 2.964357 -0.000000 -0.000000
2067
root -7.874562 35.064176 -1.228747 32.693789 13.031417 46.002230
Spine -0.684821 -7.727736 -8.527745
Head -17.982030 39.803816 -23.743310
LeftShoulder 2.381527 9.737657 7.342945
LeftArm 61.535601 33.146796 -44.238534
LeftForeArm 31.661596 -0.000000 108.984413
LeftHand -26.492478 -0.000000 28.978162
LeftHandThumb1 -26.253704 0.000000 33.147579
RightShoulder -16.707375 12.246660 -28.475620
RightArm 8.523058 -34.725802 79.392799
RightForeArm -22.099683 -0.000000 120.479533
RightHand 1.657117 -0.000000 -20.950422
RightHandThumb1 -24.326973 -0.000000 -32.862282
LeftUpLeg -49.710588 29.156169 30.882516
LeftLeg 76.697798 -0.000000 -0.000000
LeftFoot 29.473091 21.203394 -13.207055
LeftToeBase 0.963706 -0.000000 -0.000000
RightUpLeg -26.868013 -21.600634 -36.110919
RightLeg 26.841685 -0.000000 -0.000000
RightFoot -13.317145 -3.727546 2.718342
RightToeBase 2.337809 -0.000000 -0.000000
2068
root -7.871267 35.049613 -1.248617 32.327054 12.995903 45.440396
Spine -0.661666 -7.680186 -7.852732
Head -18.191557 39.731413 -23.672532
LeftShoulder 2.373946 9.723165 7.476462
LeftArm 61.685767 33.212355 -44.311941
LeftForeArm 31.954189 -0.000000 109.133563
LeftHand -26.885923 -0.000000 29.434008
LeftHandThumb1 -26.253704 0.000000 33.147579
RightShoulder -16.805228 12.185750 -28.439064
RightArm 8.680971 -34.361328 79.075039
RightForeArm -22.247520 0.000000 120.629249
RightHand 1.754647 -0.000000 -20.780704
RightHandThumb1 -24.326973 -0.000000 -32.862282
LeftUpLeg -50.267393 29.249963 30.302043
LeftLeg 78.203457 -0.000000 -0.000000
LeftFoot 29.391147 21.287383 -13.444484
LeftToeBase 1.081259 -0.000000 -0.000000
RightUpLeg -26.958788 -20.311690 -36.188453
RightLeg 27.407091 -0.000000 -0.000000
RightFoot -12.966369 -2.954170 2.686519
RightToeBase 1.585908 -0.000000 -0.000000
